<?xml version="1.0" encoding="UTF-8"?>
<svg version="1.1" xmlns="http://www.w3.org/2000/svg" width="512" height="512">
<path d="M0 0 C40.55037699 36.97101735 66.36324067 92.26126906 69.24710083 147.09106445 C69.47819279 153.38356118 69.50691616 159.67459585 69.49414062 165.97070312 C69.49392914 166.93564697 69.49371765 167.90059082 69.49349976 168.89477539 C69.45880508 184.80499855 68.43245872 200.0515972 65.11914062 215.65820312 C64.94253906 216.5312207 64.7659375 217.40423828 64.58398438 218.30371094 C56.83754728 255.75916883 39.23496863 291.4748457 13.12304688 319.50195312 C11.26131296 321.50522237 9.50182902 323.5639361 7.74414062 325.65820312 C-9.00117302 344.78473109 -31.95091733 359.1170937 -54.88085938 369.65820312 C-56.02683594 370.18929688 -57.1728125 370.72039062 -58.35351562 371.26757812 C-113.46144535 395.81623109 -177.6431044 397.3354305 -234.27539062 376.88085938 C-259.47608921 367.19604694 -282.84993403 353.83888236 -302.88085938 335.65820312 C-303.92576421 334.73296891 -304.97134714 333.80849999 -306.01757812 332.88476562 C-327.26046993 313.9698166 -342.91186053 290.31962808 -354.88085938 264.65820312 C-355.40164063 263.55734375 -355.92242187 262.45648438 -356.45898438 261.32226562 C-362.96075813 246.91570379 -367.44462106 231.728591 -370.69335938 216.28320312 C-370.88808838 215.35846191 -371.08281738 214.4337207 -371.28344727 213.48095703 C-374.35452471 198.06201162 -375.28767794 183.02669934 -375.25585938 167.34570312 C-375.25564789 166.38075928 -375.2554364 165.41581543 -375.25521851 164.42163086 C-375.22052383 148.5114077 -374.19417747 133.26480905 -370.88085938 117.65820312 C-370.70425781 116.78518555 -370.52765625 115.91216797 -370.34570312 115.01269531 C-362.59903006 77.5560965 -344.99546904 41.83711903 -318.88085938 13.81054688 C-317.04004218 11.82951119 -315.30361294 9.79383058 -313.56835938 7.72070312 C-281.84224099 -28.43400387 -233.11207382 -47.3657409 -186.88085938 -55.34179688 C-185.61628906 -55.56867187 -184.35171875 -55.79554687 -183.04882812 -56.02929688 C-117.8098393 -65.70428595 -48.7048318 -43.80586626 0 0 Z " fill="#F44336" transform="translate(408.880859375,89.341796875)"/>
<path d="M0 0 C4.01349245 2.30257518 6.88459929 5.08901069 10.10983276 8.37174988 C10.76419815 9.02567719 11.41856354 9.67960449 12.09275818 10.35334778 C14.24252374 12.50519453 16.381482 14.66745334 18.52047729 16.83000183 C20.01340206 18.3285249 21.50699285 19.82638468 23.0012207 21.3236084 C26.92380025 25.25761812 30.83728519 29.20055493 34.74893188 33.14543152 C38.74544202 37.1726817 42.75050488 41.19140634 46.75485229 45.21086121 C54.60438293 53.09252379 62.44433021 60.98364563 70.27828979 68.88078308 C73.05444051 67.6124718 75.09243467 66.31363139 77.23800659 64.14811707 C77.79305878 63.59292389 78.34811096 63.03773071 78.91998291 62.4657135 C79.51646637 61.8588974 80.11294983 61.2520813 80.72750854 60.62687683 C81.36540314 59.98606171 82.00329773 59.34524658 82.66052246 58.68501282 C84.04320311 57.29472852 85.42356855 55.90213869 86.80187988 54.50752258 C88.98291138 52.30096108 91.17013288 50.10071053 93.35910034 47.90202332 C98.00443681 43.23382901 102.64191093 38.55787184 107.27828979 33.88078308 C112.65075678 28.46114295 118.0263832 23.04471963 123.41052246 17.63667297 C125.56612256 15.46809878 127.71561438 13.29359127 129.86495972 11.11882019 C131.18603354 9.79048151 132.50738886 8.4624227 133.82907104 7.13468933 C134.4255545 6.52787323 135.02203796 5.92105713 135.63659668 5.29585266 C136.46917496 4.4630629 136.46917496 4.4630629 137.318573 3.6134491 C137.79639725 3.13118362 138.2742215 2.64891815 138.76652527 2.15203857 C142.60916672 -1.07927091 146.09224566 -1.56396281 150.96969604 -1.42781067 C156.26330703 -0.72020446 159.85997166 2.02626124 163.21578979 6.06828308 C165.85966022 10.13443364 166.23522734 14.16786566 165.27828979 18.88078308 C163.05119805 24.26672971 159.86850997 27.70263169 155.787323 31.71232605 C155.13339569 32.36669144 154.47946838 33.02105682 153.8057251 33.69525146 C151.65387834 35.84501702 149.49161954 37.98397528 147.32907104 40.12297058 C145.83054798 41.61589534 144.33268819 43.10948614 142.83546448 44.60371399 C138.90145475 48.52629354 134.95851794 52.43977847 131.01364136 56.35142517 C126.98639118 60.34793531 122.96766654 64.35299816 118.94821167 68.35734558 C111.06654909 76.20687622 103.17542724 84.0468235 95.27828979 91.88078308 C96.54660107 94.6569338 97.84544148 96.69492795 100.01095581 98.84049988 C100.56614899 99.39555206 101.12134216 99.95060425 101.69335938 100.5224762 C102.30017548 101.11895966 102.90699158 101.71544312 103.53219604 102.33000183 C104.17301117 102.96789642 104.81382629 103.60579102 105.47406006 104.26301575 C106.86434436 105.6456964 108.25693419 107.02606183 109.65155029 108.40437317 C111.85811179 110.58540466 114.05836235 112.77262617 116.25704956 114.96159363 C120.92524387 119.60693009 125.60120103 124.24440422 130.27828979 128.88078308 C135.69792993 134.25325006 141.11435325 139.62887649 146.5223999 145.01301575 C148.69097409 147.16861584 150.86548161 149.31810766 153.04025269 151.467453 C154.36859137 152.78852682 155.69665018 154.10988214 157.02438354 155.43156433 C157.9346077 156.32628952 157.9346077 156.32628952 158.86322021 157.23908997 C159.41841339 157.79414215 159.97360657 158.34919434 160.54562378 158.92106628 C161.02788925 159.39889053 161.51015472 159.87671478 162.0070343 160.36901855 C165.23867578 164.21205481 165.71499749 167.69206433 165.59469604 172.56828308 C164.91162268 177.56062174 162.39135633 180.84916044 158.71578979 184.25578308 C155.46330491 186.42410634 152.80363274 187.0673435 148.96578979 187.19328308 C148.22715698 187.23066589 147.48852417 187.26804871 146.72750854 187.30656433 C140.47585149 186.21975314 135.81865202 180.69987092 131.5385437 176.36808777 C130.89393188 175.72376801 130.24932007 175.07944824 129.58517456 174.41560364 C127.4702877 172.2993311 125.36256042 170.17607834 123.25485229 168.05265808 C121.78412907 166.57820203 120.31296166 165.10418891 118.84136963 163.63059998 C114.98020495 159.76182016 111.1250858 155.88707067 107.27120972 152.0110321 C103.33320445 148.05252274 99.38949068 144.09970956 95.44625854 140.14640808 C87.7180159 132.39675293 79.99615025 124.64077692 72.27828979 116.88078308 C69.50240869 118.14867739 67.46763722 119.44530826 65.32530212 121.6134491 C64.7716951 122.16864227 64.21808807 122.72383545 63.64770508 123.29585266 C63.05279266 123.90266876 62.45788025 124.50948486 61.84494019 125.13468933 C60.89050774 126.09591202 60.89050774 126.09591202 59.91679382 127.07655334 C58.5374213 128.46687459 57.16033097 129.85946293 55.78526497 131.25404358 C53.60851388 133.46095679 51.42515276 135.66112675 49.23982239 137.85954285 C43.02834886 144.11077194 36.82963196 150.37459676 30.63400269 156.64152527 C26.84262162 160.47561008 23.04396734 164.30236752 19.24093437 168.12489319 C17.7935467 169.58285071 16.34908185 171.04371592 14.90760994 172.50752258 C12.89217527 174.55413714 10.86770271 176.59139513 8.84103394 178.62687683 C8.24814575 179.23369293 7.65525757 179.84050903 7.04440308 180.4657135 C2.82716862 184.67359778 -0.91320121 187.11221962 -7.03421021 187.38078308 C-12.55392396 187.25177475 -15.94523548 184.73704248 -19.72171021 180.88078308 C-22.66256727 176.74520283 -23.08388473 173.15276042 -23.21780396 168.22453308 C-21.9060034 162.02705014 -16.55058571 157.43081622 -12.20901489 153.14103699 C-11.56469513 152.49642517 -10.92037537 151.85181335 -10.25653076 151.18766785 C-8.14025822 149.07278098 -6.01700546 146.96505371 -3.89358521 144.85734558 C-2.41912915 143.38662236 -0.94511604 141.91545494 0.5284729 140.44386292 C4.39725271 136.58269824 8.27200221 132.72757908 12.14804077 128.873703 C16.10655014 124.93569774 20.05936332 120.99198397 24.01266479 117.04875183 C31.76231995 109.32050918 39.51829596 101.59864354 47.27828979 93.88078308 C46.01039548 91.10490198 44.71376462 89.07013051 42.54562378 86.92779541 C41.9904306 86.37418839 41.43523743 85.82058136 40.86322021 85.25019836 C40.25640411 84.65528595 39.64958801 84.06037354 39.02438354 83.44743347 C38.06316086 82.49300102 38.06316086 82.49300102 37.08251953 81.51928711 C35.69219829 80.13991459 34.29960995 78.76282426 32.9050293 77.38775826 C30.69811609 75.21100717 28.49794612 73.02764605 26.29953003 70.84231567 C20.04830093 64.63084215 13.78447611 58.43212525 7.51754761 52.23649597 C3.6834628 48.4451149 -0.14329464 44.64646062 -3.96582031 40.84342766 C-5.42377784 39.39603998 -6.88464304 37.95157514 -8.34844971 36.51010323 C-10.39506426 34.49466856 -12.43232226 32.470196 -14.46780396 30.44352722 C-15.37802811 29.55419495 -15.37802811 29.55419495 -16.30664062 28.64689636 C-20.51452491 24.4296619 -22.95314674 20.68929207 -23.22171021 14.56828308 C-23.10162057 9.03492241 -20.49519482 5.7264875 -16.72171021 1.88078308 C-11.91212992 -2.27885392 -5.73149117 -2.35689379 0 0 Z " fill="#EEECEC" transform="translate(184.72171020507813,163.1192169189453)"/>
</svg>
