<?xml version="1.0" encoding="UTF-8"?>
<svg version="1.1" xmlns="http://www.w3.org/2000/svg" width="512" height="512">
<path d="M0 0 C1.01790619 0.00215515 2.03581238 0.0043103 3.08456421 0.00653076 C17.69363523 0.05620146 32.02575853 0.30709809 46.375 3.3125 C47.34985352 3.51117676 48.32470703 3.70985352 49.32910156 3.91455078 C97.7109774 14.03517194 141.69928269 35.9516877 177.375 70.3125 C178.3640332 71.26068604 178.3640332 71.26068604 179.37304688 72.22802734 C188.86130305 81.37247479 197.6012044 90.66984009 205.375 101.3125 C206.23306152 102.46355017 207.09113451 103.61459177 207.94921875 104.765625 C213.98736829 112.95680614 219.34595521 121.47054105 224.375 130.3125 C224.73948242 130.94430176 225.10396484 131.57610352 225.47949219 132.22705078 C247.08534998 169.97532572 256.85198095 212.74189997 256.6875 255.9375 C256.68534485 256.95540619 256.6831897 257.97331238 256.68096924 259.02206421 C256.63129854 273.63113523 256.38040191 287.96325853 253.375 302.3125 C253.07698486 303.77478027 253.07698486 303.77478027 252.77294922 305.26660156 C242.65232806 353.6484774 220.7358123 397.63678269 186.375 433.3125 C185.74287598 433.97185547 185.11075195 434.63121094 184.45947266 435.31054688 C175.31502521 444.79880305 166.01765991 453.5387044 155.375 461.3125 C154.22394983 462.17056152 153.07290823 463.02863451 151.921875 463.88671875 C143.73224019 469.92427396 135.22961724 475.30707302 126.375 480.3125 C125.66778809 480.7146875 124.96057617 481.116875 124.23193359 481.53125 C101.09654164 494.5566741 75.92537591 503.30551461 49.9375 508.625 C49.21860596 508.77235596 48.49971191 508.91971191 47.7590332 509.0715332 C33.08339502 511.86090125 18.55831162 512.66142619 3.64770508 512.62817383 C0.70811513 512.6250221 -2.2304558 512.64854926 -5.16992188 512.67382812 C-18.54306192 512.71848737 -31.43916711 511.51301542 -44.625 509.3125 C-46.33055054 509.03031616 -46.33055054 509.03031616 -48.07055664 508.74243164 C-91.33802759 500.97044532 -132.38793216 480.98345309 -165.625 452.3125 C-166.37007813 451.67828125 -167.11515625 451.0440625 -167.8828125 450.390625 C-181.38779833 438.57948485 -194.05918743 425.82889772 -204.625 411.3125 C-205.48149066 410.16255169 -206.33826433 409.01281411 -207.1953125 407.86328125 C-213.23534209 399.67315742 -218.61867614 391.16870382 -223.625 382.3125 C-224.0271875 381.60528809 -224.429375 380.89807617 -224.84375 380.16943359 C-237.8691741 357.03404164 -246.61801461 331.86287591 -251.9375 305.875 C-252.08485596 305.15610596 -252.23221191 304.43721191 -252.3840332 303.6965332 C-255.35789088 288.05024391 -255.99800362 272.57681954 -255.9375 256.6875 C-255.93534485 255.66959381 -255.9331897 254.65168762 -255.93096924 253.60293579 C-255.88129854 238.99386477 -255.63040191 224.66174147 -252.625 210.3125 C-252.42632324 209.33764648 -252.22764648 208.36279297 -252.02294922 207.35839844 C-241.90232806 158.9765226 -219.9858123 114.98821731 -185.625 79.3125 C-184.99287598 78.65314453 -184.36075195 77.99378906 -183.70947266 77.31445312 C-174.56502521 67.82619695 -165.26765991 59.0862956 -154.625 51.3125 C-153.47394983 50.45443848 -152.32290823 49.59636549 -151.171875 48.73828125 C-142.98224019 42.70072604 -134.47961724 37.31792698 -125.625 32.3125 C-124.91778809 31.9103125 -124.21057617 31.508125 -123.48193359 31.09375 C-100.34654164 18.0683259 -75.17537591 9.31948539 -49.1875 4 C-48.46860596 3.85264404 -47.74971191 3.70528809 -47.0090332 3.5534668 C-31.36274391 0.57960912 -15.88931954 -0.06050362 0 0 Z " fill="#008ADF" transform="translate(255.625,-0.3125)"/>
<path d="M0 0 C4.45146251 2.18526342 7.18885145 4.9394521 10 9 C10.92172374 11.76517121 11.12375838 13.38443871 11.12025452 16.233078 C11.12162918 17.09544571 11.12300385 17.95781342 11.12442017 18.84631348 C11.11902725 20.26079773 11.11902725 20.26079773 11.11352539 21.70385742 C11.11367142 22.6991597 11.11381744 23.69446198 11.1139679 24.71992493 C11.11327032 28.01512825 11.10548511 31.31027529 11.09765625 34.60546875 C11.09579152 36.88804595 11.09436788 39.17062355 11.09336853 41.45320129 C11.08954767 47.46525169 11.07972104 53.47727798 11.06866455 59.48931885 C11.05844118 65.62243321 11.05386892 71.75555145 11.04882812 77.88867188 C11.03809841 89.92579185 11.02102714 101.96289392 11 114 C12.2475708 113.99111755 13.4951416 113.98223511 14.78051758 113.9730835 C26.55089079 113.89191582 38.32120705 113.83199514 50.09179688 113.79275131 C56.14285976 113.77189723 62.19369628 113.74361882 68.24462891 113.69824219 C74.08664163 113.65470758 79.92843692 113.6308465 85.77059937 113.62049103 C87.99689149 113.6131134 90.22317203 113.5987066 92.44937134 113.57707977 C95.57327781 113.54794527 98.69629153 113.54404829 101.8203125 113.54589844 C102.73597488 113.53151733 103.65163727 113.51713623 104.595047 113.50231934 C112.16101665 113.55064807 117.20937455 115.6744788 123 120.5 C125.86614142 124.30856758 125.62510045 128.55661251 125.42578125 133.15234375 C124.69999115 138.0064812 122.53051517 140.65500182 118.9375 143.8125 C115.5654283 145.87925362 112.79577328 146.12906079 108.93412781 146.14717102 C107.36329437 146.15790398 107.36329437 146.15790398 105.76072693 146.16885376 C104.61209671 146.17154266 103.46346649 146.17423157 102.2800293 146.17700195 C100.46503433 146.18685875 100.46503433 146.18685875 98.6133728 146.19691467 C94.60031895 146.21666159 90.58730505 146.22831436 86.57421875 146.23828125 C85.19156181 146.24232959 83.80890508 146.24644653 82.42624855 146.25063133 C75.9303851 146.26967731 69.43453297 146.28390996 62.93864697 146.2922433 C55.44494668 146.30201599 47.95154175 146.32833848 40.45794553 146.36874419 C34.66250761 146.39891915 28.8671543 146.41371344 23.07163936 146.41702431 C19.61168449 146.41937312 16.15204538 146.42831096 12.69217491 146.45348549 C8.83073884 146.48112864 4.96969056 146.47693082 1.1081543 146.4699707 C-0.03440323 146.48278076 -1.17696075 146.49559082 -2.35414124 146.50878906 C-8.55257179 146.46801847 -12.30112171 146.18644598 -17 142 C-20.37317467 138.16155986 -21.12357182 134.96618688 -21.14717102 129.93412781 C-21.15432632 128.88690552 -21.16148163 127.83968323 -21.16885376 126.76072693 C-21.17154266 125.61209671 -21.17423157 124.46346649 -21.17700195 123.2800293 C-21.18357315 122.07003265 -21.19014435 120.86003601 -21.19691467 119.6133728 C-21.21666159 115.60031895 -21.22831436 111.58730505 -21.23828125 107.57421875 C-21.24232959 106.19156181 -21.24644653 104.80890508 -21.25063133 103.42624855 C-21.26967731 96.9303851 -21.28390996 90.43453297 -21.2922433 83.93864697 C-21.30201599 76.44494668 -21.32833848 68.95154175 -21.36874419 61.45794553 C-21.39891915 55.66250761 -21.41371344 49.8671543 -21.41702431 44.07163936 C-21.41937312 40.61168449 -21.42831096 37.15204538 -21.45348549 33.69217491 C-21.48112864 29.83073884 -21.47693082 25.96969056 -21.4699707 22.1081543 C-21.48278076 20.96559677 -21.49559082 19.82303925 -21.50878906 18.64585876 C-21.46795391 12.43761245 -21.19061543 8.70371771 -17 4 C-11.88842963 -0.73755303 -6.65085064 -0.98127305 0 0 Z " fill="#FCFDFE" transform="translate(155,232)"/>
<path d="M0 0 C1.81565208 -0.00810448 1.81565208 -0.00810448 3.66798401 -0.01637268 C6.97614187 -0.02671562 10.28329471 -0.01918311 13.59136391 -0.00266147 C17.05989579 0.01122834 20.52839856 0.00472449 23.99694824 0.00120544 C29.8208046 -0.00149359 35.6444545 0.01195232 41.46826172 0.03515625 C48.19279578 0.06176422 54.91698474 0.06351203 61.6415534 0.05176789 C68.12143697 0.04097298 74.60119622 0.04719056 81.08106995 0.06132317 C83.83373468 0.06706817 86.58630798 0.06701204 89.338974 0.06225777 C93.18574996 0.05658102 97.03218336 0.07584506 100.87890625 0.09765625 C102.01675064 0.0931546 103.15459503 0.08865295 104.32691956 0.08401489 C109.91723169 0.13668069 114.16699334 0.23808119 118.93945312 3.50170898 C122.64120294 7.60364796 124.06207041 9.98155344 124.07989502 15.44732666 C124.08560516 16.49317429 124.09131531 17.53902191 124.09719849 18.61656189 C124.09887527 20.34490013 124.09887527 20.34490013 124.10058594 22.1081543 C124.10555084 23.31800491 124.11051575 24.52785553 124.1156311 25.77436829 C124.1277537 29.09894299 124.13520186 32.42345468 124.13964176 35.74804401 C124.1425721 37.82555984 124.14667689 39.90307014 124.15114594 41.98058319 C124.16482471 48.48179291 124.17448872 54.98299 124.17834783 61.48421311 C124.18282554 68.98635968 124.20035834 76.48832377 124.22934842 83.99041486 C124.25098076 89.79008012 124.26105298 95.58969412 124.26238894 101.38939929 C124.26343614 104.85266045 124.2693252 108.31575017 124.28720856 111.77896881 C124.30678405 115.64526726 124.30239405 119.51133875 124.29589844 123.37768555 C124.30511322 124.52181412 124.314328 125.66594269 124.32382202 126.84474182 C124.29427284 132.45371615 124.2237745 136.71566884 120.93945312 141.50170898 C115.60849294 146.31257549 112.07576095 146.9758882 104.99414062 146.90795898 C101.08015462 146.38742888 99.16945712 145.15278144 96.34179688 142.49780273 C91.97314421 136.27946984 91.51220027 130.82285286 91.59887695 123.43554688 C91.59821983 121.95634766 91.59821983 121.95634766 91.59754944 120.44726562 C91.59963003 117.20609347 91.62292702 113.96544641 91.64648438 110.72436523 C91.65208291 108.4699278 91.65635179 106.21548671 91.65934753 103.96104431 C91.67077595 98.04102417 91.70022609 92.12122648 91.73345947 86.20129395 C91.76420345 80.15497852 91.77786213 74.10862699 91.79296875 68.06225586 C91.82509754 56.20864275 91.87626981 44.3551944 91.93945312 32.50170898 C90.67713364 32.51059143 89.41481415 32.51947388 88.11424255 32.52862549 C76.21111182 32.60975445 64.30803727 32.66969529 52.40469265 32.70895767 C46.28522139 32.72982154 40.16597355 32.75811791 34.04663086 32.8034668 C28.13978444 32.84696639 22.23315277 32.87085512 16.32615852 32.88121796 C14.07392052 32.88860186 11.8216941 32.90302089 9.56954765 32.92462921 C6.41191189 32.9537171 3.25516056 32.95766263 0.09741211 32.95581055 C-0.83119629 32.97019165 -1.75980469 32.98457275 -2.71655273 32.99938965 C-8.69285123 32.96152481 -12.15946331 31.9750542 -17.06054688 28.50170898 C-21.73680098 23.3332176 -22.41839761 20.10652136 -22.33789062 13.26342773 C-21.82728195 8.17891603 -19.35111552 5.64899898 -15.66589355 2.37290955 C-10.92506852 -0.67559889 -5.44186234 -0.04623809 0 0 Z " fill="#FCFDFE" transform="translate(254.060546875,133.498291015625)"/>
</svg>
