<?xml version="1.0" encoding="UTF-8"?>
<svg version="1.1" xmlns="http://www.w3.org/2000/svg" width="512" height="512">
<path d="M0 0 C9.31173056 8.57900422 18.11985132 17.55218061 25.78710938 27.64648438 C26.21443359 28.20271484 26.64175781 28.75894531 27.08203125 29.33203125 C34.01333753 38.38697179 40.20443155 47.7053166 45.78710938 57.64648438 C46.39619141 58.7210791 46.39619141 58.7210791 47.01757812 59.81738281 C60.59424369 83.97340393 69.22149465 110.35552237 73.78710938 137.64648438 C73.90570313 138.32163086 74.02429688 138.99677734 74.14648438 139.69238281 C78.20099516 163.7419066 77.30350361 190.75937844 72.78710938 214.64648438 C72.6261377 215.52272461 72.46516602 216.39896484 72.29931641 217.30175781 C61.91264775 272.07871357 31.63948454 324.76187148 -13.21289062 358.64648438 C-13.83437988 359.12263184 -14.45586914 359.5987793 -15.09619141 360.08935547 C-26.8653199 369.06069825 -39.15971729 376.68705177 -52.21289062 383.64648438 C-52.90608398 384.02111816 -53.59927734 384.39575195 -54.31347656 384.78173828 C-75.42871513 396.02525987 -99.72940236 402.76384524 -123.21289062 406.64648438 C-124.29763672 406.83911865 -124.29763672 406.83911865 -125.40429688 407.03564453 C-149.33861136 411.15728106 -176.43907775 410.14145801 -200.21289062 405.64648438 C-201.08913086 405.4855127 -201.96537109 405.32454102 -202.86816406 405.15869141 C-257.64511982 394.77202275 -310.32827773 364.49885954 -344.21289062 319.64648438 C-344.68903809 319.02499512 -345.16518555 318.40350586 -345.65576172 317.76318359 C-370.10972173 285.68305865 -385.36603467 249.34360326 -392.21289062 209.64648438 C-392.34421387 208.91606934 -392.47553711 208.1856543 -392.61083984 207.43310547 C-402.40174667 150.48655483 -386.4414975 87.57423548 -353.75585938 40.55029297 C-340.03895701 21.28238823 -324.09967144 2.99218128 -305.21289062 -11.35351562 C-304.65666016 -11.78083984 -304.10042969 -12.20816406 -303.52734375 -12.6484375 C-294.47257516 -19.57961215 -285.146238 -25.75807026 -275.21289062 -31.35351562 C-274.55595215 -31.72718262 -273.89901367 -32.10084961 -273.22216797 -32.48583984 C-249.09220013 -46.10431748 -222.52344221 -54.880487 -195.21289062 -59.35351562 C-194.54209473 -59.47065918 -193.87129883 -59.58780273 -193.18017578 -59.70849609 C-123.86798075 -71.40243123 -51.4982501 -46.37752015 0 0 Z " fill="#FFC107" transform="translate(415.212890625,82.353515625)"/>
<path d="M0 0 C0.91657245 -0.00453111 1.83314491 -0.00906223 2.77749228 -0.01373065 C5.85584249 -0.02641405 8.93401666 -0.02475172 12.01239014 -0.02310181 C14.2167229 -0.02908466 16.42105357 -0.03588964 18.62538147 -0.04345703 C24.61930342 -0.06115058 30.6131683 -0.06581387 36.60711384 -0.0670886 C41.60953239 -0.06898634 46.61193761 -0.07634258 51.61435103 -0.08343279 C62.74298999 -0.09879654 73.87160784 -0.10476957 85.00025514 -0.10342209 C85.66796574 -0.10334218 86.33567635 -0.10326227 87.02362061 -0.10317993 C87.69214844 -0.10309817 88.36067627 -0.10301641 89.04946253 -0.10293217 C99.87852861 -0.10211966 110.70745547 -0.12124813 121.53648129 -0.14945666 C132.66049465 -0.17820444 143.7844506 -0.19162984 154.90850329 -0.19026911 C161.15182647 -0.18975911 167.39499218 -0.19546327 173.63828278 -0.21662521 C179.51193158 -0.23598984 185.38527244 -0.23614395 191.25893211 -0.22159195 C193.41318143 -0.21950046 195.56744992 -0.22422495 197.72166634 -0.23631287 C200.66612415 -0.25176303 203.60951992 -0.24245822 206.55395508 -0.22705078 C207.40338723 -0.23733791 208.25281939 -0.24762503 209.12799191 -0.25822389 C215.77767253 -0.18150653 220.94593759 1.6588673 226.05438232 5.97836304 C230.44805362 11.38791209 232.52906258 16.0135138 232.26922607 23.19320679 C231.45142895 30.3120637 228.58444132 34.25173241 223.16375732 38.82211304 C217.84898565 42.42369824 213.16339623 42.55914547 206.94163513 42.5415802 C205.56549481 42.54943522 205.56549481 42.54943522 204.16155368 42.55744892 C201.08631643 42.57245491 198.01124548 42.57315421 194.93597412 42.57382202 C192.73149332 42.58144308 190.52701517 42.58987048 188.32254028 42.5990448 C182.33281569 42.62100152 176.34314216 42.62979026 170.35338187 42.63487124 C166.61128683 42.63851333 162.86920519 42.64475261 159.12711525 42.65187263 C148.75998485 42.67132734 138.39286373 42.68784119 128.02571392 42.69074917 C127.36268949 42.69093674 126.69966506 42.69112431 126.01654898 42.69131756 C124.67252656 42.6916838 123.32850414 42.6920475 121.98448171 42.69240867 C121.31733651 42.69259148 120.65019131 42.6927743 119.96282959 42.69296265 C118.96088609 42.69323347 118.96088609 42.69323347 117.93870131 42.69350976 C107.11613582 42.69705118 96.29376933 42.72407337 85.47127285 42.76146054 C74.35174924 42.7995655 63.23230819 42.81846595 52.11271602 42.81920868 C45.87271912 42.82000199 39.63297902 42.82876585 33.39304161 42.85720634 C27.52343626 42.88336054 21.65430112 42.88560658 15.78466415 42.8695507 C13.6320207 42.86773415 11.47935038 42.87444544 9.32676506 42.89036942 C6.38435538 42.91080688 3.44359443 42.90029131 0.50120544 42.88215637 C-0.34754459 42.89535634 -1.19629463 42.90855631 -2.07076436 42.92215627 C-8.86279262 42.82675995 -13.61693319 40.50804439 -18.49797994 35.78935808 C-23.35227 30.3008818 -24.49216976 25.19570134 -24.34796143 18.05258179 C-23.55399011 12.21648332 -20.24020869 8.18575075 -15.90655518 4.39242554 C-10.49436267 0.47722245 -6.62735628 -0.0239135 0 0 Z " fill="#FFFEFE" transform="translate(151.96905517578125,234.73257446289063)"/>
</svg>
