<?xml version="1.0" encoding="UTF-8"?>
<svg version="1.1" xmlns="http://www.w3.org/2000/svg" width="512" height="512">
<path d="M0 0 C15.38902552 12.00516416 25.6549039 29.22195912 28.37274647 48.57437515 C29.11456152 55.43342231 28.99313428 62.31897048 28.98527527 69.20843506 C28.98714549 70.76611265 28.98944704 72.32378977 28.99214059 73.88146615 C28.99823885 78.14583432 28.99812733 82.41018282 28.99694622 86.67455435 C28.99674171 91.28000787 29.00226572 95.88545516 29.00700378 100.49090576 C29.01530001 109.50780961 29.01805816 118.52470692 29.01861616 127.54161426 C29.0190918 134.87300186 29.02114893 142.20438731 29.02431679 149.53577423 C29.03312047 170.3343341 29.0377366 191.13288882 29.03698631 211.93145058 C29.03694636 213.05203087 29.0369064 214.17261116 29.03686523 215.32714844 C29.03682435 216.44910127 29.03678347 217.57105411 29.03674135 218.72700551 C29.03633494 236.90799881 29.04590405 255.0889714 29.0600036 273.2699587 C29.07437597 291.95054287 29.08127331 310.63111694 29.08040982 329.31170678 C29.08007816 339.79441977 29.08281198 350.27711103 29.09358788 360.75981903 C29.10270418 369.68507673 29.10485883 378.61030286 29.09807845 387.5355632 C29.094819 392.08600711 29.0947358 396.6363905 29.1034317 401.18682861 C29.111323 405.35927359 29.10983856 409.5316103 29.10114757 413.70405272 C29.09961836 415.20669733 29.10140671 416.70935013 29.10700765 418.21198508 C29.18817431 441.54888039 24.11993084 461.48453222 7.8515625 478.86328125 C-7.29818351 493.70041345 -25.3355811 499.40872188 -46.15014648 499.28125 C-64.74921921 498.8183346 -81.24535527 491.95432076 -94.42578125 478.78515625 C-107.5414133 464.70984381 -115.2590517 448.42090238 -115.27986526 429.01274776 C-115.2819179 428.35715296 -115.28397053 427.70155816 -115.28608537 427.02609685 C-115.29172207 424.83793023 -115.29030226 422.64982722 -115.28887939 420.46165466 C-115.29146495 418.8734173 -115.29447864 417.28518059 -115.2978828 415.69694477 C-115.30593378 411.33877805 -115.30774131 406.98062781 -115.30848026 402.62245452 C-115.31033414 397.91946655 -115.31788318 393.21648707 -115.32461548 388.51350403 C-115.33818599 378.23231585 -115.34422157 367.95113158 -115.34862614 357.66993594 C-115.35139083 351.2472982 -115.35562861 344.82466195 -115.36013031 338.40202522 C-115.37232149 320.61111133 -115.38262098 302.82019864 -115.3860054 285.02928066 C-115.38622497 283.89105044 -115.38644453 282.75282021 -115.38667075 281.58009816 C-115.38688903 280.43918136 -115.38710731 279.29826457 -115.3873322 278.12277454 C-115.38777566 275.81093498 -115.38822223 273.49909542 -115.38867188 271.18725586 C-115.3888933 270.04050941 -115.38911473 268.89376297 -115.38934287 267.71226663 C-115.39328958 249.1373544 -115.41074041 230.56248142 -115.4340314 211.98758435 C-115.45776422 192.90590418 -115.47020814 173.82424369 -115.47137332 154.74254853 C-115.47228901 144.03340107 -115.47801469 133.32430477 -115.49619293 122.61517143 C-115.51162 113.4948184 -115.51669902 104.37453234 -115.50845483 95.25416874 C-115.50455751 90.60434839 -115.50543291 85.95466279 -115.51951218 81.30485916 C-115.53230626 77.04033621 -115.53100561 72.77604852 -115.51892146 68.51152564 C-115.51697396 66.97650041 -115.51999867 65.44145819 -115.52876583 63.90645676 C-115.6488783 41.43691259 -109.32362659 22.40236973 -93.7734375 5.98828125 C-86.12143145 -1.26518282 -76.94549387 -6.35904023 -67.1484375 -10.13671875 C-65.90320313 -10.61818359 -65.90320313 -10.61818359 -64.6328125 -11.109375 C-42.57964311 -18.04129228 -18.68271683 -12.67921353 0 0 Z " fill="#FFFFFF" transform="translate(433.1484375,13.13671875)"/>
<path d="M0 0 C15.78097475 12.65244062 25.81113286 29.67951184 28.32275391 49.75244141 C28.4102847 52.03469486 28.45173235 54.31904484 28.45418167 56.60297489 C28.4562343 57.25856969 28.45828694 57.91416449 28.46040177 58.58962581 C28.46603848 60.77779242 28.46461867 62.96589544 28.4631958 65.15406799 C28.46578135 66.74230535 28.46879504 68.33054207 28.4721992 69.91877788 C28.48025019 74.27694461 28.48205771 78.63509485 28.48279667 82.99326813 C28.48465055 87.6962561 28.49219959 92.39923558 28.49893188 97.10221863 C28.5125024 107.3834068 28.51853798 117.66459107 28.52294254 127.94578671 C28.52570723 134.36842446 28.52994501 140.7910607 28.53444672 147.21369743 C28.5466379 165.00461132 28.55693739 182.79552402 28.56032181 200.58644199 C28.56065116 202.29378733 28.56065116 202.29378733 28.56098716 204.0356245 C28.56120544 205.17654129 28.56142372 206.31745809 28.56164861 207.49294811 C28.56209207 209.80478768 28.56253863 212.11662724 28.56298828 214.4284668 C28.56332043 216.14858646 28.56332043 216.14858646 28.56365928 217.90345602 C28.56760599 236.47836826 28.58505681 255.05324124 28.6083478 273.62813831 C28.63208062 292.70981848 28.64452454 311.79147897 28.64568973 330.87317413 C28.64660542 341.58232159 28.6523311 352.29141789 28.67050934 363.00055122 C28.6859364 372.12090425 28.69101543 381.24119031 28.68277124 390.36155391 C28.67887392 395.01137427 28.67974932 399.66105987 28.69382858 404.31086349 C28.70662267 408.57538644 28.70532202 412.83967414 28.69323787 417.10419702 C28.69129036 418.63922225 28.69431508 420.17426447 28.70308223 421.7092659 C28.8231947 444.17881006 22.49794299 463.21335292 6.94775391 479.62744141 C-0.70425215 486.88090548 -9.88018972 491.97476289 -19.67724609 495.75244141 C-20.92248047 496.23390625 -20.92248047 496.23390625 -22.19287109 496.72509766 C-40.4394542 502.46050024 -61.09278038 499.58636858 -77.81225586 491.07202148 C-95.09254381 481.79667982 -106.27922361 466.82581214 -112.80615234 448.60009766 C-115.87781023 438.0199427 -115.82341471 427.32649129 -115.81095886 416.4072876 C-115.81282908 414.84961001 -115.81513063 413.29193289 -115.81782418 411.73425651 C-115.82392245 407.46988834 -115.82381092 403.20553984 -115.82262981 398.94116831 C-115.8224253 394.33571479 -115.82794931 389.73026749 -115.83268738 385.12481689 C-115.84098361 376.10791305 -115.84374175 367.09101574 -115.84429976 358.07410839 C-115.84477539 350.74272079 -115.84683253 343.41133534 -115.85000038 336.07994843 C-115.85880407 315.28138855 -115.86342019 294.48283383 -115.86266991 273.68427208 C-115.86262995 272.56369179 -115.86259 271.44311149 -115.86254883 270.28857422 C-115.86250795 269.16662138 -115.86246707 268.04466855 -115.86242495 266.88871714 C-115.86201853 248.70772385 -115.87158765 230.52675126 -115.88568719 212.34576395 C-115.90005956 193.66517978 -115.90695691 174.98460571 -115.90609342 156.30401587 C-115.90576175 145.82130289 -115.90849557 135.33861162 -115.91927147 124.85590363 C-115.92838777 115.93064593 -115.93054242 107.0054198 -115.92376205 98.08015946 C-115.92050259 93.52971554 -115.92041939 88.97933216 -115.9291153 84.42889404 C-115.9370066 80.25644907 -115.93552215 76.08411236 -115.92683116 71.91166994 C-115.92530195 70.40902533 -115.9270903 68.90637253 -115.93269124 67.40373757 C-116.0138579 44.06684226 -110.94561443 24.13119044 -94.67724609 6.75244141 C-69.54322747 -17.86293873 -28.40908319 -21.13106479 0 0 Z " fill="#FFFFFF" transform="translate(165.67724609375,13.24755859375)"/>
</svg>
